<?xml version="1.0" standalone="no"?>
<svg viewBox="0 0 200 200" xmlns="http://www.w3.org/2000/svg">
  <path fill="#4F46E5" d="M25.3,-53C29.5,-41.5,27.2,-27.9,27.4,-18.8C27.6,-9.6,30.3,-4.8,35.2,2.8C40.1,10.5,47.3,21,46.4,29C45.6,37.1,36.7,42.7,27.7,43.8C18.6,44.9,9.3,41.4,-3.5,47.5C-16.3,53.5,-32.6,69.1,-46.2,70.6C-59.9,72.2,-70.9,59.8,-68.8,45.7C-66.7,31.6,-51.4,15.8,-43,4.9C-34.5,-6,-32.9,-12,-32.1,-21C-31.2,-30,-31.2,-41.9,-26,-52.8C-20.7,-63.7,-10.4,-73.5,0.1,-73.7C10.6,-73.9,21.2,-64.5,25.3,-53Z" transform="translate(100 100)" />
</svg>
